#!OML:ASF X:\für Bonn\!DataBase\2005_08_10_Bjorn_Final\c3d\bjorn.ASF
:FULLY-SPECIFIED
:DEGREES
169
root 1.01221 7.89281 8.60772 -2006.67 -3.81744 166.632
lowerback 45.7847 -4.34269 20.7885
upperback 22.2429 -13.6959 9.81431
thorax 7.65727 -11.7983 4.10488
lowerneck 3.90508 -4.1361 14.1776
upperneck 9.19746 -3.9584 -11.8566
head 1.49549 -1.53679 -5.92658
rclavicle 9.22361e-014 9.70069e-014
rhumerus -10.0115 -42.0102 -63.6794
rradius 28.3089
rwrist -12.2282
rhand -12.9483 1.31028
rfingers 7.12502
rthumb 13.143 -28.2555
lclavicle 9.22361e-014 9.70069e-014
lhumerus -27.7329 -34.5775 84.046
lradius 38.8872
lwrist -10.4395
lhand -33.0832 -10.2271
lfingers 7.12502
lthumb -6.29458 739.659
rfemur -437.715 -69.8871 347.892
rtibia 139.586
rfoot -38.882 43.9758
rtoes -18.251
lfemur -65.4578 26.503 -11.2002
ltibia 136.465
lfoot -31.6378 3.0765
ltoes -27.9138
170
root 1.0619 7.73953 8.60697 -2007.7 -4.3334 166.763
lowerback 45.7743 -4.41883 20.3846
upperback 22.3775 -13.905 9.42865
thorax 7.70539 -11.9064 3.90372
lowerneck 4.34724 -4.02123 14.5554
upperneck 9.24069 -3.73331 -11.6551
head 1.46665 -1.39307 -5.92369
rclavicle -7.95139e-014 -2.70347e-014
rhumerus -10.8752 -42.4849 -64.1521
rradius 28.2258
rwrist -11.5129
rhand -12.7372 1.12776
rfingers 7.12502
rthumb 13.3465 -28.4248
lclavicle -7.95139e-014 -2.70347e-014
lhumerus -27.8725 -33.3468 83.8786
lradius 38.1944
lwrist -10.9466
lhand -33.0824 -10.1155
lfingers 7.12502
lthumb -6.29376 739.771
rfemur -434.732 -73.6524 344.176
rtibia 140.555
rfoot -40.865 45.1351
rtoes -17.9528
lfemur -65.0652 27.6391 -10.0026
ltibia 137.172
lfoot -31.7 1.82403
ltoes -27.7147
171
root 1.11252 7.58782 8.60503 -2008.71 -4.8547 166.922
lowerback 45.7662 -4.49519 19.9693
upperback 22.483 -14.0842 9.04606
thorax 7.71451 -11.9954 3.71306
lowerneck 4.81406 -3.91897 14.8678
upperneck 9.32624 -3.51187 -11.4108
head 1.4489 -1.2483 -5.89708
rclavicle -6.67916e-014 1.90833e-014
rhumerus -11.7367 -43.0065 -64.5395
rradius 28.0406
rwrist -10.8615
rhand -12.5391 0.916085
rfingers 7.12502
rthumb 13.5374 -28.6239
lclavicle -6.67916e-014 1.90833e-014
lhumerus -28.0009 -31.9792 83.7838
lradius 37.4305
lwrist -11.4109
lhand -33.0556 -10.0029
lfingers 7.12502
lthumb -6.26792 739.884
rfemur -429.654 -77.3624 338.313
rtibia 141.515
rfoot -42.9294 46.1734
rtoes -17.594
lfemur -64.7205 28.8063 -8.73607
ltibia 137.864
lfoot -31.7528 0.482539
ltoes -27.5253
172
root 1.16045 7.43692 8.60225 -2009.7 -5.36908 167.109
lowerback 45.7026 -4.56609 19.5935
upperback 22.6324 -14.2677 8.63708
thorax 7.77993 -12.0757 3.46357
lowerneck 5.24271 -3.80752 15.2534
upperneck 9.41483 -3.27501 -11.1948
head 1.43892 -1.0949 -5.89294
rclavicle 9.85972e-014 -3.97569e-014
rhumerus -12.6138 -43.5345 -64.9356
rradius 27.902
rwrist -10.4596
rhand -12.3371 0.692023
rfingers 7.12502
rthumb 13.7321 -28.8349
lclavicle 9.85972e-014 -3.97569e-014
lhumerus -28.0599 -30.5561 83.6564
lradius 36.665
lwrist -11.6443
lhand -33.0061 -9.89071
lfingers 7.12502
lthumb -6.2201 739.998
rfemur -420.41 -80.7097 328.216
rtibia 142.453
rfoot -44.9874 47.1172
rtoes -17.2329
lfemur -64.3763 30.0346 -7.40359
ltibia 138.543
lfoot -31.7992 -0.897833
ltoes -27.2567
173
root 1.20618 7.28919 8.59852 -2010.69 -5.86117 167.332
lowerback 45.5977 -4.6214 19.2832
upperback 22.8104 -14.4111 8.2193
thorax 7.88293 -12.1223 3.15618
lowerneck 5.55834 -3.72052 15.7414
upperneck 9.56168 -3.07256 -11.0163
head 1.45795 -0.956347 -5.9196
rclavicle 1.27222e-013 3.81667e-014
rhumerus -13.6155 -44.1091 -65.2605
rradius 27.8025
rwrist -10.222
rhand -12.2284 0.479535
rfingers 7.12502
rthumb 13.8369 -29.0402
lclavicle 1.27222e-013 3.81667e-014
lhumerus -28.0552 -29.2888 83.5545
lradius 35.8725
lwrist -11.4165
lhand -32.9096 -9.78785
lfingers 7.12502
lthumb -6.12694 740.104
rfemur -402.6 -83.3676 309.553
rtibia 143.363
rfoot -47.1138 47.788
rtoes -16.979
lfemur -64.0206 31.316 -5.97141
ltibia 139.207
lfoot -31.8828 -2.41422
ltoes -26.8925
174
root 1.25072 7.14283 8.59403 -2011.67 -6.33546 167.551
lowerback 45.4659 -4.6451 18.9698
upperback 23.0253 -14.533 7.78783
thorax 8.02883 -12.1555 2.8189
lowerneck 5.86617 -3.63985 16.3457
upperneck 9.63511 -2.87477 -10.907
head 1.45381 -0.820064 -5.98622
rclavicle -4.45278e-014 1.08139e-013
rhumerus -14.6856 -44.4938 -65.569
rradius 27.7655
rwrist -10.3302
rhand -12.249 0.365886
rfingers 7.12502
rthumb 13.8171 -29.1552
lclavicle -4.45278e-014 1.08139e-013
lhumerus -27.9758 -27.9468 83.4429
lradius 34.9837
lwrist -10.8952
lhand -32.7121 -9.80804
lfingers 7.12502
lthumb -5.93622 740.089
rfemur -371.305 -84.6339 277.318
rtibia 144.267
rfoot -49.1486 48.4021
rtoes -16.5894
lfemur -63.6724 32.6317 -4.52116
ltibia 139.849
lfoot -31.9483 -3.81686
ltoes -26.6501
